<mxfile host="65bd71144e">
    <diagram id="bJC_gql-dBmHxd1W3GWj" name="第 1 页">
        <mxGraphModel dx="1367" dy="738" grid="0" gridSize="10" guides="1" tooltips="1" connect="1" arrows="1" fold="1" page="0" pageScale="1" pageWidth="827" pageHeight="1169" math="0" shadow="0">
            <root>
                <mxCell id="0"/>
                <mxCell id="1" parent="0"/>
                <mxCell id="45" value="" style="group;pointerEvents=0;fontFamily=Helvetica;fontSize=12;fontColor=default;fillColor=none;gradientColor=none;" vertex="1" connectable="0" parent="1">
                    <mxGeometry x="170" y="50" width="198.31999999999994" height="120" as="geometry"/>
                </mxCell>
                <mxCell id="46" value="" style="swimlane;startSize=0;fontSize=18;gradientColor=#ffffff;collapsible=0;strokeColor=default;comic=0;metaEdit=0;snapToPoint=0;pointerEvents=0;fontFamily=Helvetica;fontColor=default;" vertex="1" parent="45">
                    <mxGeometry x="40" width="120" height="120" as="geometry"/>
                </mxCell>
                <mxCell id="47" value="" style="endArrow=classic;html=1;rounded=0;fontSize=18;strokeColor=default;strokeWidth=1;jumpStyle=sharp;entryX=-0.014;entryY=0.341;entryDx=0;entryDy=0;entryPerimeter=0;sketch=0;comic=0;metaEdit=0;snapToPoint=0;fontFamily=Helvetica;fontColor=default;" edge="1" parent="45" target="46">
                    <mxGeometry width="50" height="50" relative="1" as="geometry">
                        <mxPoint y="41" as="sourcePoint"/>
                        <mxPoint x="140" y="20" as="targetPoint"/>
                    </mxGeometry>
                </mxCell>
                <mxCell id="48" value="" style="endArrow=classic;html=1;rounded=0;fontSize=18;strokeColor=default;strokeWidth=1;jumpStyle=sharp;entryX=-0.014;entryY=0.341;entryDx=0;entryDy=0;entryPerimeter=0;sketch=0;comic=0;metaEdit=0;snapToPoint=0;fontFamily=Helvetica;fontColor=default;" edge="1" parent="45">
                    <mxGeometry width="50" height="50" relative="1" as="geometry">
                        <mxPoint x="1.6799999999998363" y="80.07999999999993" as="sourcePoint"/>
                        <mxPoint x="40" y="80" as="targetPoint"/>
                    </mxGeometry>
                </mxCell>
                <mxCell id="49" value="" style="endArrow=classic;html=1;rounded=0;fontSize=18;strokeColor=default;strokeWidth=1;jumpStyle=sharp;sketch=0;comic=0;metaEdit=0;snapToPoint=0;fontFamily=Helvetica;fontColor=default;entryX=0.2;entryY=0.25;entryDx=0;entryDy=0;entryPerimeter=0;" edge="1" parent="45" target="56">
                    <mxGeometry width="50" height="50" relative="1" as="geometry">
                        <mxPoint x="159.99999999999977" y="40.07999999999993" as="sourcePoint"/>
                        <mxPoint x="340" y="40" as="targetPoint"/>
                    </mxGeometry>
                </mxCell>
                <mxCell id="50" value="" style="endArrow=classic;html=1;rounded=0;fontSize=18;strokeColor=default;strokeWidth=1;jumpStyle=sharp;sketch=0;comic=0;metaEdit=0;snapToPoint=0;fontFamily=Helvetica;fontColor=default;" edge="1" parent="45">
                    <mxGeometry width="50" height="50" relative="1" as="geometry">
                        <mxPoint x="159.99999999999977" y="80.07999999999993" as="sourcePoint"/>
                        <mxPoint x="230" y="210" as="targetPoint"/>
                        <Array as="points">
                            <mxPoint x="190" y="80"/>
                            <mxPoint x="190" y="210"/>
                        </Array>
                    </mxGeometry>
                </mxCell>
                <mxCell id="51" value="half adder" style="text;html=1;align=center;verticalAlign=middle;resizable=0;points=[];autosize=1;strokeColor=default;fillColor=none;fontSize=18;comic=0;metaEdit=0;snapToPoint=0;pointerEvents=0;fontFamily=Helvetica;fontColor=default;" vertex="1" parent="45">
                    <mxGeometry x="50" y="45" width="100" height="30" as="geometry"/>
                </mxCell>
                <mxCell id="52" value="加数A" style="text;html=1;align=center;verticalAlign=middle;resizable=0;points=[];autosize=1;strokeColor=none;fillColor=none;fontSize=18;fontFamily=Helvetica;fontColor=default;" vertex="1" parent="1">
                    <mxGeometry x="110" y="75" width="60" height="30" as="geometry"/>
                </mxCell>
                <mxCell id="53" value="被加数B" style="text;html=1;align=center;verticalAlign=middle;resizable=0;points=[];autosize=1;strokeColor=none;fillColor=none;fontSize=18;fontFamily=Helvetica;fontColor=default;" vertex="1" parent="1">
                    <mxGeometry x="100" y="120" width="80" height="30" as="geometry"/>
                </mxCell>
                <mxCell id="55" value="是否进位X" style="text;html=1;align=center;verticalAlign=middle;resizable=0;points=[];autosize=1;strokeColor=none;fillColor=none;fontSize=18;fontFamily=Helvetica;fontColor=default;" vertex="1" parent="1">
                    <mxGeometry x="363" y="60" width="100" height="30" as="geometry"/>
                </mxCell>
                <mxCell id="56" value="" style="verticalLabelPosition=bottom;shadow=0;dashed=0;align=center;html=1;verticalAlign=top;shape=mxgraph.electrical.logic_gates.logic_gate;operation=or;pointerEvents=0;fontFamily=Helvetica;fontSize=18;fontColor=default;fillColor=none;gradientColor=none;" vertex="1" parent="1">
                    <mxGeometry x="610" y="75" width="100" height="65" as="geometry"/>
                </mxCell>
                <mxCell id="59" value="进位信号C1" style="text;html=1;align=center;verticalAlign=middle;resizable=0;points=[];autosize=1;strokeColor=none;fillColor=none;fontSize=18;fontFamily=Helvetica;fontColor=default;" vertex="1" parent="1">
                    <mxGeometry x="685" y="60" width="110" height="30" as="geometry"/>
                </mxCell>
                <mxCell id="60" value="" style="endArrow=classic;html=1;comic=0;sketch=0;fontFamily=Helvetica;fontSize=18;fontColor=default;strokeColor=default;" edge="1" parent="1">
                    <mxGeometry width="50" height="50" relative="1" as="geometry">
                        <mxPoint x="690" y="107.21" as="sourcePoint"/>
                        <mxPoint x="750" y="107.21" as="targetPoint"/>
                    </mxGeometry>
                </mxCell>
                <mxCell id="61" value="" style="group;pointerEvents=0;fontFamily=Helvetica;fontSize=18;fontColor=default;strokeWidth=0.5;fillColor=none;gradientColor=none;" vertex="1" connectable="0" parent="1">
                    <mxGeometry x="363" y="220" width="198.31999999999994" height="120" as="geometry"/>
                </mxCell>
                <mxCell id="62" value="" style="swimlane;startSize=0;fontSize=18;gradientColor=#ffffff;collapsible=0;strokeColor=default;comic=0;metaEdit=0;snapToPoint=0;pointerEvents=0;fontFamily=Helvetica;fontColor=default;" vertex="1" parent="61">
                    <mxGeometry x="40" width="120" height="120" as="geometry"/>
                </mxCell>
                <mxCell id="64" value="" style="endArrow=classic;html=1;rounded=0;fontSize=18;strokeColor=default;strokeWidth=1;jumpStyle=sharp;entryX=-0.014;entryY=0.341;entryDx=0;entryDy=0;entryPerimeter=0;sketch=0;comic=0;metaEdit=0;snapToPoint=0;fontFamily=Helvetica;fontColor=default;" edge="1" parent="61">
                    <mxGeometry width="50" height="50" relative="1" as="geometry">
                        <mxPoint x="-203" y="80" as="sourcePoint"/>
                        <mxPoint x="40" y="80" as="targetPoint"/>
                    </mxGeometry>
                </mxCell>
                <mxCell id="65" value="" style="endArrow=classic;html=1;rounded=0;fontSize=18;strokeColor=default;strokeWidth=1;jumpStyle=sharp;entryX=0.216;entryY=0.756;entryDx=0;entryDy=0;entryPerimeter=0;sketch=0;comic=0;metaEdit=0;snapToPoint=0;fontFamily=Helvetica;fontColor=default;" edge="1" parent="61" target="56">
                    <mxGeometry width="50" height="50" relative="1" as="geometry">
                        <mxPoint x="159.99999999999977" y="40.07999999999993" as="sourcePoint"/>
                        <mxPoint x="198.31999999999994" y="40" as="targetPoint"/>
                        <Array as="points">
                            <mxPoint x="207" y="40"/>
                            <mxPoint x="207" y="-96"/>
                        </Array>
                    </mxGeometry>
                </mxCell>
                <mxCell id="66" value="" style="endArrow=classic;html=1;rounded=0;fontSize=18;strokeColor=default;strokeWidth=1;jumpStyle=sharp;sketch=0;comic=0;metaEdit=0;snapToPoint=0;fontFamily=Helvetica;fontColor=default;" edge="1" parent="61">
                    <mxGeometry width="50" height="50" relative="1" as="geometry">
                        <mxPoint x="159.99999999999977" y="80.07999999999993" as="sourcePoint"/>
                        <mxPoint x="237" y="80" as="targetPoint"/>
                    </mxGeometry>
                </mxCell>
                <mxCell id="71" value="和S" style="edgeLabel;html=1;align=center;verticalAlign=middle;resizable=0;points=[];fontSize=18;fontFamily=Helvetica;fontColor=default;" vertex="1" connectable="0" parent="66">
                    <mxGeometry x="0.6389" y="1" relative="1" as="geometry">
                        <mxPoint x="34" y="-4" as="offset"/>
                    </mxGeometry>
                </mxCell>
                <mxCell id="67" value="half adder" style="text;html=1;align=center;verticalAlign=middle;resizable=0;points=[];autosize=1;strokeColor=default;fillColor=none;fontSize=18;comic=0;metaEdit=0;snapToPoint=0;pointerEvents=0;fontFamily=Helvetica;fontColor=default;" vertex="1" parent="61">
                    <mxGeometry x="50" y="45" width="100" height="30" as="geometry"/>
                </mxCell>
                <mxCell id="68" value="进位信号C0" style="text;html=1;align=center;verticalAlign=middle;resizable=0;points=[];autosize=1;strokeColor=none;fillColor=none;fontSize=18;fontFamily=Helvetica;fontColor=default;" vertex="1" parent="1">
                    <mxGeometry x="55" y="290" width="110" height="30" as="geometry"/>
                </mxCell>
                <mxCell id="70" value="是否进位Y" style="text;html=1;align=center;verticalAlign=middle;resizable=0;points=[];autosize=1;strokeColor=none;fillColor=none;fontSize=18;fontFamily=Helvetica;fontColor=default;" vertex="1" parent="1">
                    <mxGeometry x="470" y="150" width="100" height="30" as="geometry"/>
                </mxCell>
                <mxCell id="72" value="&lt;b&gt;&lt;font style=&quot;font-size: 24px&quot;&gt;全加器(full adder)&lt;/font&gt;&lt;/b&gt;" style="text;html=1;align=center;verticalAlign=middle;resizable=0;points=[];autosize=1;strokeColor=none;fillColor=none;fontSize=18;fontFamily=Helvetica;fontColor=default;" vertex="1" parent="1">
                    <mxGeometry x="672" y="441" width="206" height="28" as="geometry"/>
                </mxCell>
                <mxCell id="87" value="" style="group" vertex="1" connectable="0" parent="1">
                    <mxGeometry x="880" y="40" width="280" height="280" as="geometry"/>
                </mxCell>
                <mxCell id="73" value="" style="whiteSpace=wrap;html=1;aspect=fixed;pointerEvents=0;fontFamily=Helvetica;fontSize=24;fontColor=default;strokeWidth=0.5;fillColor=none;gradientColor=none;" vertex="1" parent="87">
                    <mxGeometry x="80" y="80" width="120" height="120" as="geometry"/>
                </mxCell>
                <mxCell id="74" value="" style="endArrow=classic;html=1;comic=0;sketch=0;fontFamily=Helvetica;fontSize=24;fontColor=default;strokeColor=default;entryX=0;entryY=0.5;entryDx=0;entryDy=0;" edge="1" parent="87" target="73">
                    <mxGeometry width="50" height="50" relative="1" as="geometry">
                        <mxPoint y="140" as="sourcePoint"/>
                        <mxPoint x="40" y="110" as="targetPoint"/>
                    </mxGeometry>
                </mxCell>
                <mxCell id="75" value="" style="endArrow=classic;html=1;comic=0;sketch=0;fontFamily=Helvetica;fontSize=24;fontColor=default;strokeColor=default;entryX=0.66;entryY=0;entryDx=0;entryDy=0;entryPerimeter=0;" edge="1" parent="87" target="73">
                    <mxGeometry width="50" height="50" relative="1" as="geometry">
                        <mxPoint x="159" as="sourcePoint"/>
                        <mxPoint x="170" y="20" as="targetPoint"/>
                    </mxGeometry>
                </mxCell>
                <mxCell id="76" value="" style="endArrow=classic;html=1;comic=0;sketch=0;fontFamily=Helvetica;fontSize=24;fontColor=default;strokeColor=default;entryX=0.333;entryY=0;entryDx=0;entryDy=0;entryPerimeter=0;" edge="1" parent="87" target="73">
                    <mxGeometry width="50" height="50" relative="1" as="geometry">
                        <mxPoint x="120" as="sourcePoint"/>
                        <mxPoint x="100" y="160" as="targetPoint"/>
                    </mxGeometry>
                </mxCell>
                <mxCell id="77" value="" style="endArrow=classic;html=1;comic=0;sketch=0;fontFamily=Helvetica;fontSize=24;fontColor=default;strokeColor=default;entryX=0;entryY=0.5;entryDx=0;entryDy=0;" edge="1" parent="87">
                    <mxGeometry width="50" height="50" relative="1" as="geometry">
                        <mxPoint x="200" y="139.41" as="sourcePoint"/>
                        <mxPoint x="280" y="139.41" as="targetPoint"/>
                    </mxGeometry>
                </mxCell>
                <mxCell id="78" value="" style="endArrow=classic;html=1;comic=0;sketch=0;fontFamily=Helvetica;fontSize=24;fontColor=default;strokeColor=default;exitX=0.5;exitY=1;exitDx=0;exitDy=0;" edge="1" parent="87" source="73">
                    <mxGeometry width="50" height="50" relative="1" as="geometry">
                        <mxPoint x="95" y="250" as="sourcePoint"/>
                        <mxPoint x="140" y="280" as="targetPoint"/>
                    </mxGeometry>
                </mxCell>
                <mxCell id="79" value="&lt;font style=&quot;font-size: 18px&quot;&gt;全加器&lt;/font&gt;" style="text;html=1;align=center;verticalAlign=middle;resizable=0;points=[];autosize=1;strokeColor=none;fillColor=none;fontSize=24;fontFamily=Helvetica;fontColor=default;" vertex="1" parent="87">
                    <mxGeometry x="105" y="120" width="70" height="40" as="geometry"/>
                </mxCell>
            </root>
        </mxGraphModel>
    </diagram>
</mxfile>